<svg version="1.1" id="Layer_1" xmlns="http://www.w3.org/2000/svg" xmlns:xlink="http://www.w3.org/1999/xlink" x="0px" y="0px"
	 width="48px" height="48px" viewBox="0 0 48 48" enable-background="new 0 0 48 48" xml:space="preserve">
<path fill="none" d="M0,0h48v48H0V0z"/>
<path fill="#1565c0" d="M24,15.923c-4.458,0-8.077,3.619-8.077,8.077c0,4.459,3.619,8.076,8.077,8.076s8.076-3.617,8.076-8.076
	C32.076,19.542,28.458,15.923,24,15.923z M24,5.62C13.845,5.62,5.62,13.845,5.62,24c0,10.155,8.225,18.38,18.38,18.38
	c10.154,0,18.38-8.225,18.38-18.38C42.38,13.845,34.154,5.62,24,5.62z M24,37.678c-7.556,0-13.676-6.122-13.676-13.678
	S16.444,10.324,24,10.324S37.675,16.444,37.675,24S31.556,37.678,24,37.678z"/>
</svg>
